<svg version="1.1" id="Layer_1" xmlns="http://www.w3.org/2000/svg" xmlns:xlink="http://www.w3.org/1999/xlink" x="0px" y="0px"
	 width="100%" viewBox="0 0 1000 1000" enable-background="new 0 0 1000 1000" xml:space="preserve">
<path fill="#000000" opacity="1.000000" stroke="none"
	d="
M586.000000,1001.000000
	C390.666656,1001.000000 195.833328,1001.000000 1.000000,1001.000000
	C1.000000,667.666687 1.000000,334.333344 1.000000,1.000000
	C334.333344,1.000000 667.666687,1.000000 1001.000000,1.000000
	C1001.000000,334.333344 1001.000000,667.666687 1001.000000,1001.000000
	C862.833313,1001.000000 724.666687,1001.000000 586.000000,1001.000000
M412.605621,635.348572
	C412.193695,635.014038 411.781769,634.679443 411.369843,634.344910
	C411.207916,634.902710 411.046021,635.460510 410.464142,635.631348
	C410.308014,635.084595 410.151886,634.537781 410.178986,633.352966
	C409.250610,629.433472 407.804382,626.010010 403.110779,625.084229
	C401.656219,623.695923 400.201660,622.307617 398.760284,620.162537
	C400.489105,616.501282 397.683380,611.114807 392.985138,608.568726
	C392.042084,607.385315 391.099060,606.201843 389.965576,604.229797
	C390.633179,600.309143 387.640869,599.836487 385.190674,598.272827
	C385.310211,598.157532 385.455627,598.058411 385.541138,597.921875
	C385.610229,597.811462 385.607178,597.655884 385.636139,597.520325
	C378.560547,597.080261 371.485535,596.626892 364.404236,596.317383
	C364.289001,596.312378 364.096985,598.064697 363.171631,599.334290
	C363.956268,601.925110 360.824158,605.431396 365.280426,607.846863
	C365.656464,609.889160 365.633606,612.119080 366.488464,613.936096
	C368.504730,618.221558 370.840515,622.367920 373.234802,626.460754
	C375.243866,629.895081 377.326599,633.321716 379.748230,636.465637
	C381.166840,638.307434 383.312897,639.588928 385.066711,641.824036
	C385.103668,642.289734 385.140656,642.755493 384.817413,643.806519
	C385.204620,645.057312 385.591858,646.308044 386.039642,648.005066
	C386.505646,648.343018 386.971649,648.680969 387.960175,649.566162
	C390.110992,652.300598 392.261810,655.035034 394.832336,658.255676
	C396.542755,659.544922 398.253204,660.834229 399.966522,662.890625
	C402.953979,665.562317 405.800995,668.421814 408.998322,670.812927
	C410.270111,671.764038 412.317566,671.677917 414.222198,672.716858
	C419.408752,678.975403 426.860504,681.607056 433.753571,685.705933
	C433.753937,686.474976 433.437347,687.628296 433.815094,687.939819
	C434.881531,688.819397 436.178925,689.491577 437.481018,690.000610
	C443.596954,692.391663 449.744965,694.700439 455.983246,697.850769
	C460.552673,699.573181 465.085022,701.404663 469.706207,702.974670
	C472.246887,703.837830 474.908966,704.494385 477.567993,704.814941
	C480.101318,705.120300 483.203430,705.987793 484.883575,702.031921
	C488.903931,702.351257 492.924255,702.670654 497.175690,703.769104
	C504.659546,704.148743 512.142212,704.562927 519.630188,704.822998
	C520.083801,704.838745 520.579895,703.629517 521.905151,703.049927
	C525.544250,702.710938 529.183350,702.371948 533.168335,702.712646
	C536.032654,703.380554 539.382629,705.316467 541.657288,704.445068
	C546.014648,702.775757 550.600281,702.405701 554.885681,700.910339
	C559.410217,699.331604 563.690063,697.051575 568.879333,695.005676
	C572.921387,693.156067 576.989136,691.357727 580.962708,689.371094
	C581.327759,689.188599 581.091675,687.803772 581.750244,686.816284
	C587.564636,683.506409 593.379028,680.196533 599.928101,676.940857
	C605.775452,674.323486 611.094482,671.075195 614.018738,665.018982
	C614.018738,665.018982 614.067810,665.106445 614.683472,665.637573
	C615.659485,665.067017 616.824768,664.679016 617.580078,663.895630
	C621.846252,659.470825 626.147278,655.065918 630.154846,650.411743
	C631.947754,648.329590 635.261353,646.786560 634.175903,642.342163
	C635.839844,639.368347 637.442810,636.358337 639.179626,633.427795
	C643.452881,626.217651 647.809265,619.056885 652.082581,611.846863
	C653.163391,610.023315 654.057800,608.089294 655.669434,605.804138
	C660.226562,603.512268 660.251343,598.675293 661.555786,594.708923
	C662.139771,592.933350 663.971375,589.843201 660.052673,588.033936
	C661.036865,583.014587 662.021118,577.995239 663.770386,572.932739
	C664.353760,571.765198 664.937195,570.597595 665.493958,569.483215
	C665.803894,570.143005 666.187500,570.959534 666.571106,571.776123
	C666.871399,571.731750 667.171753,571.687378 667.472046,571.643066
	C667.472046,566.851685 667.472046,562.060364 667.472046,556.919678
	C666.650513,557.269104 665.822693,557.621155 665.047974,557.130432
	C665.028503,550.438538 665.009033,543.746643 665.770447,537.281738
	C666.471985,537.393372 667.173523,537.504944 667.875061,537.616577
	C667.655884,532.813416 669.166687,527.838562 666.382202,521.946411
	C666.052490,524.719666 665.878296,526.184387 665.720276,527.513611
	C664.770020,525.900696 663.872070,524.376587 663.113586,522.023010
	C661.709045,516.306946 660.304504,510.590851 658.967834,504.006836
	C659.987549,494.940247 654.868835,487.960205 651.012146,479.876831
	C649.750244,477.783722 648.481262,475.694824 647.228210,473.596436
	C645.635986,470.930237 644.045959,468.262604 642.478394,465.581909
	C642.001831,464.766998 641.707703,463.828735 641.150818,463.080292
	C638.013428,458.863342 634.821350,454.687042 631.924744,449.904999
	C631.987915,449.113281 632.424255,447.972961 632.058777,447.581665
	C625.695618,440.769684 619.274658,434.009521 612.719727,427.382996
	C612.175842,426.833160 610.581238,427.322723 608.804016,426.880219
	C607.399719,426.204254 605.995422,425.528290 604.924500,424.161499
	C607.734131,421.697784 605.108704,420.279999 603.626526,419.294006
	C597.581055,415.272491 591.626099,410.959808 585.117920,407.838196
	C579.878540,405.325226 574.999451,400.042419 567.784241,402.580811
	C560.665955,399.819244 553.547668,397.057709 547.158936,394.579163
	C543.289062,394.402954 539.852295,394.397705 536.447998,394.062622
	C526.951416,393.127838 517.481323,391.885681 507.970551,391.161499
	C505.655518,390.985260 503.228516,392.871704 500.845795,392.890320
	C489.436737,392.979431 478.084351,393.258911 467.103180,396.874420
	C458.612091,399.670135 450.117859,402.456451 440.850800,405.162567
	C439.716034,405.162384 438.318878,404.727509 437.487244,405.229492
	C429.479980,410.062958 421.494934,414.944946 413.723907,420.142548
	C412.783417,420.771576 413.145508,423.348175 412.210846,425.227417
	C407.139801,425.895416 404.416168,429.097595 402.360748,433.852478
	C401.549316,434.122040 400.586975,434.200012 399.955261,434.697693
	C398.191498,436.087250 396.564667,437.650574 394.169495,438.996857
	C393.618530,439.654114 393.067535,440.311371 392.180359,440.936371
	C391.930267,441.062408 391.860687,441.253967 391.419373,442.023834
	C388.956238,445.366852 386.493103,448.709869 383.290894,451.976349
	C379.348297,456.180664 374.539368,459.907898 374.865326,467.358673
	C373.236664,470.888916 371.608002,474.419128 369.411713,478.356964
	C367.529175,481.476685 365.348328,484.461487 363.857300,487.758270
	C362.638580,490.452942 361.099152,493.664551 364.791718,496.735535
	C365.211853,497.486145 365.618073,498.881226 366.054260,498.890686
	C372.605042,499.032562 379.161591,499.055267 385.709808,498.865082
	C386.194611,498.851013 386.626007,496.997253 387.694611,495.892242
	C388.094543,494.968506 388.494476,494.044739 389.308228,492.578888
	C390.203735,491.386719 391.099243,490.194580 392.745972,489.027649
	C396.890778,485.960236 398.072876,481.837921 396.956421,476.955719
	C396.956421,476.955719 396.961487,477.054962 397.708557,477.169220
	C398.119690,477.773254 398.633087,478.942535 398.925415,478.889648
	C400.843048,478.542725 404.720276,470.126892 404.578125,468.029785
	C404.578125,468.029785 405.071503,467.962708 405.833405,468.027893
	C407.879242,466.032654 410.038544,464.135437 411.899506,461.980530
	C412.436432,461.358826 412.115082,459.995972 412.717621,458.852844
	C413.170807,458.555389 413.624023,458.257935 414.793549,457.993988
	C416.731171,456.624817 418.890625,455.467560 420.498932,453.783813
	C421.156982,453.094879 420.623199,451.267487 421.237579,449.428345
	C425.821472,446.757965 430.455139,444.167542 434.955994,441.363892
	C436.158020,440.615204 436.954071,439.214783 438.023346,437.395477
	C440.737366,435.898071 443.451416,434.400665 446.960419,432.978302
	C451.051178,432.083679 455.635254,431.823822 456.616486,426.013336
	C456.841553,425.946350 457.066589,425.879333 458.028687,425.772308
	C460.298340,426.560760 461.985168,428.756927 465.096771,426.302917
	C467.345459,424.529449 471.110260,424.684662 474.191559,423.949066
	C474.447723,423.887909 474.648041,423.592896 475.185883,423.149994
	C474.564392,422.493164 473.971924,421.867004 472.929291,420.765106
	C474.401215,420.936768 475.178162,421.027374 476.356049,421.865906
	C483.802551,421.221771 491.249023,420.577637 498.695526,419.933472
	C498.715424,419.525696 498.735321,419.117889 498.755249,418.710083
	C497.128448,418.466156 495.504517,418.201111 493.874268,417.983124
	C491.271912,417.635071 488.665344,417.318298 486.908081,417.095367
	C491.618561,416.384277 496.329010,415.673187 501.965790,414.998840
	C506.961609,414.984253 511.957428,414.969696 517.778442,415.117279
	C522.506958,415.742432 527.235535,416.367554 531.645325,417.804077
	C527.765869,417.804077 523.886414,417.804077 520.006958,417.804077
	C519.999512,418.484161 519.992065,419.164246 519.984558,419.844299
	C527.311768,420.598602 534.638977,421.352905 542.247498,422.831055
	C545.934937,423.931946 549.943237,424.467499 553.205078,426.318390
	C555.671448,427.717834 557.054810,427.247101 559.659302,425.972198
	C563.161194,427.329529 566.663025,428.686859 569.886414,430.749634
	C568.961182,430.933075 568.036011,431.116486 566.700928,431.381195
	C568.368469,432.528198 569.591064,433.627716 571.015198,434.300232
	C575.298828,436.323212 579.661011,438.179810 583.986877,440.012604
	C583.986877,440.012604 583.898682,440.023895 583.356384,440.706665
	C584.576965,441.180176 585.797607,441.653717 587.249756,442.751282
	C589.785400,444.493103 592.320984,446.234955 594.946350,448.755188
	C595.706970,450.198761 596.221069,451.861420 597.273743,453.045319
	C600.584473,456.768768 604.006714,460.406128 607.585999,463.869995
	C608.703979,464.951904 610.457214,465.377319 611.991577,466.008636
	C611.991577,466.008636 611.897278,466.081024 611.391541,466.685974
	C611.814270,467.016998 612.237000,467.348022 612.659790,467.679047
	C612.857727,467.109619 613.055725,466.540161 613.664185,466.571594
	C615.309875,469.781708 616.782410,473.095947 618.636719,476.180664
	C622.704468,482.947601 628.994690,488.470978 630.086365,496.888885
	C630.167603,497.514862 630.194275,498.248047 630.534912,498.725281
	C635.937561,506.293579 638.405151,514.830688 638.295532,523.830383
	C637.535522,524.228333 636.082092,524.713745 636.119629,525.011108
	C636.663696,529.325623 637.407532,533.614929 638.686951,538.748291
	C638.463440,544.163086 637.855652,549.599304 638.154968,554.985046
	C638.346130,558.423767 640.006287,555.332397 640.923157,555.904297
	C640.621399,558.904175 640.319702,561.903992 639.189392,564.982178
	C638.585144,563.204041 637.980896,561.425842 637.297729,559.415527
	C636.839722,562.705688 636.328796,565.712402 636.031189,568.740112
	C635.822449,570.863708 636.413879,572.350830 638.928467,571.894043
	C637.851440,577.923584 637.960022,584.138306 633.517334,589.368347
	C631.454468,591.796875 631.157715,595.725525 629.314819,598.779907
	C628.533325,598.931946 627.257202,598.850281 627.055908,599.276367
	C626.181152,601.128235 625.603210,603.122437 624.948181,605.075317
	C623.951355,608.047241 622.980042,611.027771 621.607483,614.579468
	C620.346252,616.832275 619.118774,619.104858 617.814392,621.332458
	C616.458435,623.648132 615.560242,626.872192 613.519348,628.012817
	C609.319702,630.360107 606.945801,633.472717 605.911072,637.368164
	C604.803467,637.537354 603.421265,637.339966 602.630737,637.932251
	C594.700623,643.873596 586.816345,649.879456 579.040588,656.020996
	C576.853271,657.748718 575.065186,659.981873 572.438049,662.022217
	C567.895203,665.067810 563.352356,668.113464 557.971008,671.017639
	C552.474792,670.521179 547.899170,672.647766 543.102356,675.872314
	C542.472534,675.696655 541.713135,675.199097 541.232117,675.392822
	C531.666565,679.246338 521.653809,680.422729 511.441772,681.087341
	C500.024658,681.830383 489.166382,678.977844 478.257324,676.653320
	C473.501312,675.639832 469.122009,672.858459 464.865234,671.007690
	C456.443420,671.842041 451.507996,665.003723 445.015411,661.231812
	C443.696899,656.974609 439.334961,656.774841 436.362213,654.715393
	C431.234894,651.163208 426.160980,647.533936 421.007690,644.004517
	C421.007690,644.004517 421.077454,643.949280 421.022705,643.227783
	C418.707214,641.450562 416.391754,639.673340 414.009796,637.984924
	C414.009796,637.984924 414.103058,637.924927 414.613556,637.215820
	C413.760559,636.774841 412.907562,636.333862 412.028076,635.976318
	C412.028076,635.976318 412.106415,635.937134 412.605621,635.348572
z"/>
<path fill="#2B2829" opacity="1.000000" stroke="none"
	d="
M599.193420,676.886658
	C593.379028,680.196533 587.564636,683.506409 581.082581,686.824707
	C579.950195,686.957947 579.485413,687.082825 578.708984,687.190369
	C577.887939,687.763062 577.378601,688.353027 576.528442,688.916260
	C574.799255,689.334106 573.410889,689.778564 571.680359,690.202637
	C570.551086,691.118347 569.763916,692.054443 568.744873,692.931396
	C568.512939,692.872314 568.034424,692.859619 567.872131,692.546082
	C566.940369,693.060303 566.170898,693.888062 565.116821,694.349365
	C564.226685,694.041016 563.621155,694.099182 562.675903,694.107178
	C561.496216,694.677429 560.656250,695.297913 559.459473,695.925415
	C558.412659,696.079651 557.722595,696.226990 556.715210,696.267944
	C555.565430,696.759888 554.732971,697.358154 553.536743,697.907349
	C552.456482,697.990723 551.739990,698.123047 550.685913,698.143555
	C549.504211,698.660706 548.660156,699.289673 547.397583,699.880310
	C542.260193,700.572327 537.541321,701.302673 532.822449,702.032959
	C529.183350,702.371948 525.544250,702.710938 521.010498,702.971436
	C512.392029,702.925293 504.668335,702.957642 496.944611,702.989990
	C492.924255,702.670654 488.903931,702.351257 484.064056,701.850464
	C481.055786,701.259216 478.842194,700.950623 476.683105,700.420166
	C470.811462,698.977600 464.962952,697.441101 458.841461,695.688843
	C455.333435,694.234924 452.031738,693.167542 448.858154,691.802429
	C443.811035,689.631409 438.849365,687.261841 433.851593,684.976196
	C426.860504,681.607056 419.408752,678.975403 414.149139,672.023315
	C409.060822,667.189087 404.045532,663.048401 398.937439,658.596802
	C397.870544,657.546143 396.896545,656.806335 395.718933,655.785889
	C395.639496,655.064636 395.763641,654.624207 395.891174,653.842712
	C395.249207,653.011292 394.603882,652.520935 393.979980,652.016113
	C394.001404,652.001709 393.968201,652.041870 393.942291,651.664795
	C393.134735,651.077148 392.353119,650.866699 391.519287,650.641541
	C391.467102,650.626892 391.400238,650.541626 391.600830,650.203308
	C389.578156,646.950806 387.354919,644.036621 385.131683,641.122437
	C383.312897,639.588928 381.166840,638.307434 379.748230,636.465637
	C377.326599,633.321716 375.243866,629.895081 373.234802,626.460754
	C370.840515,622.367920 368.504730,618.221558 366.488464,613.936096
	C365.633606,612.119080 365.656464,609.889160 365.231873,607.083069
	C365.715454,604.842712 366.374939,602.046875 366.760986,602.084167
	C374.581970,602.838989 383.048065,598.864502 390.156036,605.018433
	C391.099060,606.201843 392.042084,607.385315 393.241455,609.150269
	C395.247559,613.460999 396.997345,617.190125 398.747101,620.919312
	C400.201660,622.307617 401.656219,623.695923 403.011475,625.827820
	C405.273346,629.044617 407.634552,631.517822 409.995728,633.991028
	C410.151886,634.537781 410.308014,635.084595 410.986115,635.901306
	C411.707520,636.093201 411.906982,636.015198 412.106415,635.937134
	C412.106415,635.937134 412.028076,635.976318 411.931763,636.347046
	C412.591309,637.120117 413.347168,637.522522 414.103058,637.924927
	C414.103058,637.924927 414.009796,637.984924 413.862152,638.295166
	C415.139740,641.804688 417.238281,644.076111 421.077454,643.949280
	C421.077454,643.949280 421.007690,644.004517 420.663940,644.206299
	C424.957672,652.410645 433.190338,656.109619 440.389954,661.009033
	C441.594818,661.828918 443.447968,661.696228 445.001587,662.003662
	C451.507996,665.003723 456.443420,671.842041 464.865234,671.007690
	C469.122009,672.858459 473.501312,675.639832 478.257324,676.653320
	C489.166382,678.977844 500.024658,681.830383 511.441772,681.087341
	C521.653809,680.422729 531.666565,679.246338 541.232117,675.392822
	C541.713135,675.199097 542.472534,675.696655 543.866699,676.033264
	C549.357178,674.515808 554.083374,672.837463 558.809509,671.159058
	C563.352356,668.113464 567.895203,665.067810 573.112732,661.973877
	C576.466553,660.876404 579.605835,660.398621 581.743530,658.677185
	C590.030090,652.003967 597.997864,644.934937 606.084351,638.013245
	C606.945801,633.472717 609.319702,630.360107 613.519348,628.012817
	C615.560242,626.872192 616.458435,623.648132 617.814392,621.332458
	C619.118774,619.104858 620.346252,616.832275 622.167969,614.392456
	C627.147705,610.079163 629.627380,605.019226 630.060303,598.974121
	C631.157715,595.725525 631.454468,591.796875 633.517334,589.368347
	C637.960022,584.138306 637.851440,577.923584 639.028687,571.069580
	C639.425232,568.464661 639.721619,566.684265 640.017944,564.903870
	C640.319702,561.903992 640.621399,558.904175 641.019531,555.011719
	C641.080505,549.731018 641.044983,545.342896 640.967285,540.519897
	C640.623291,536.756409 640.321533,533.427734 640.044617,529.708984
	C639.712830,527.546326 639.356323,525.773926 638.999756,524.001465
	C638.405151,514.830688 635.937561,506.293579 630.534912,498.725281
	C630.194275,498.248047 630.167603,497.514862 630.086365,496.888885
	C628.994690,488.470978 622.704468,482.947601 618.636719,476.180664
	C616.782410,473.095947 615.309875,469.781708 613.109558,466.172791
	C612.335693,465.876312 612.116455,465.978668 611.897278,466.081024
	C611.897278,466.081024 611.991577,466.008636 612.117188,465.705292
	C609.031311,461.483582 606.025391,457.368408 602.533081,453.718781
	C600.353943,451.441498 597.440491,449.866791 594.856628,447.976807
	C592.320984,446.234955 589.785400,444.493103 587.201294,442.080719
	C587.155945,438.394531 585.372742,439.571991 583.898682,440.023895
	C583.898682,440.023895 583.986877,440.012604 583.959717,439.689636
	C579.343323,436.259186 574.754150,433.151703 570.164917,430.044220
	C566.663025,428.686859 563.161194,427.329529 559.194946,425.587982
	C554.947388,423.746002 551.214783,422.130585 547.360291,420.895172
	C545.349243,420.250610 543.123657,420.275177 540.608398,420.021790
	C538.199036,417.054596 535.244080,416.583954 531.964050,416.992676
	C527.235535,416.367554 522.506958,415.742432 517.318604,414.632263
	C511.733978,413.953705 506.609467,413.749146 501.482971,413.625641
	C501.345947,413.622375 501.187805,414.496918 501.039490,414.962097
	C496.329010,415.673187 491.618561,416.384277 486.080750,417.003418
	C482.173187,417.666229 479.092896,418.420959 475.628967,419.096680
	C469.565216,420.781952 463.877533,422.522614 458.220612,424.358185
	C457.798157,424.495239 457.596161,425.311707 457.291656,425.812317
	C457.066589,425.879333 456.841553,425.946350 455.907593,426.074097
	C453.420380,426.890411 451.425201,427.356873 449.924530,428.482574
	C448.415344,429.614624 447.398224,431.402710 446.165466,432.903290
	C443.451416,434.400665 440.737366,435.898071 437.593353,437.680603
	C435.461639,438.458893 433.404755,438.506256 432.123535,439.527161
	C427.965027,442.840607 424.090729,446.510773 419.752106,450.125244
	C417.623871,452.791412 415.850525,455.375946 414.077209,457.960480
	C413.624023,458.257935 413.170807,458.555389 412.078918,458.823242
	C408.524323,461.299194 404.794586,463.239441 405.071503,467.962708
	C405.071503,467.962708 404.578125,468.029785 403.946899,468.002197
	C401.197571,471.001373 399.079529,474.028168 396.961487,477.054962
	C396.961487,477.054962 396.956421,476.955719 396.780884,477.222076
	C395.068451,481.326416 393.531586,485.164398 391.994690,489.002380
	C391.099243,490.194580 390.203735,491.386719 388.643066,492.801727
	C381.496887,493.089813 375.015808,493.149170 368.534882,493.222626
	C365.218903,493.260223 364.492523,492.081848 365.950104,488.941132
	C367.587189,485.413635 368.660645,481.624603 369.979309,477.949341
	C371.608002,474.419128 373.236664,470.888916 375.307251,466.933655
	C378.248352,463.054047 380.747559,459.599457 383.597931,456.123230
	C385.008453,454.135101 386.067810,452.168610 387.395599,450.028870
	C388.483765,448.904053 389.303436,447.952454 390.453064,447.041138
	C391.219147,446.428680 391.655273,445.775970 392.083252,445.096375
	C392.075043,445.069427 392.129395,445.084320 392.478821,445.088745
	C396.226898,441.307861 399.625519,437.522552 403.024109,433.737244
	C404.416168,429.097595 407.139801,425.895416 412.927246,425.105469
	C420.989960,420.026245 428.365601,415.111542 435.664185,410.084961
	C437.765228,408.637939 439.644196,406.868530 441.625000,405.246948
	C450.117859,402.456451 458.612091,399.670135 467.103180,396.874420
	C478.084351,393.258911 489.436737,392.979431 500.845795,392.890320
	C503.228516,392.871704 505.655518,390.985260 507.970551,391.161499
	C517.481323,391.885681 526.951416,393.127838 536.447998,394.062622
	C539.852295,394.397705 543.289062,394.402954 547.158936,394.579163
	C553.547668,397.057709 560.665955,399.819244 568.145142,403.203461
	C574.380493,406.393646 580.719360,407.797852 586.001831,411.846527
	C591.998413,416.442566 598.377991,420.538818 604.591125,424.852325
	C605.995422,425.528290 607.399719,426.204254 609.261597,427.395844
	C610.231140,428.658966 610.638794,429.512115 611.271851,430.137024
	C615.732056,434.540192 620.266235,438.868500 624.719238,443.278809
	C627.088135,445.624939 629.342102,448.087097 631.647949,450.496887
	C634.821350,454.687042 638.013428,458.863342 641.150818,463.080292
	C641.707703,463.828735 642.001831,464.766998 642.478394,465.581909
	C644.045959,468.262604 645.635986,470.930237 647.228210,473.596436
	C648.481262,475.694824 649.750244,477.783722 650.939392,480.590576
	C650.642090,482.255280 649.979858,483.369873 650.264221,484.130585
	C652.105530,489.056244 654.129150,493.914703 656.144470,498.773865
	C656.998901,500.834045 657.977722,502.842712 658.900024,504.874756
	C660.304504,510.590851 661.709045,516.306946 663.047241,522.883789
	C663.650452,528.181335 664.320007,532.618042 664.989563,537.054749
	C665.009033,543.746643 665.028503,550.438538 664.950439,557.972412
	C664.237061,563.534912 663.621155,568.255371 663.005371,572.975891
	C662.021118,577.995239 661.036865,583.014587 659.732666,588.536865
	C657.345398,593.997192 658.127930,599.901917 654.345032,604.324585
	C654.132812,604.572693 654.786987,605.561768 655.037903,606.205994
	C654.057800,608.089294 653.163391,610.023315 652.082581,611.846863
	C647.809265,619.056885 643.452881,626.217651 639.179626,633.427795
	C637.442810,636.358337 635.839844,639.368347 633.721680,642.567017
	C632.788757,643.127930 632.231567,643.391479 631.843262,643.811279
	C627.256775,648.769409 622.607727,653.674438 618.173523,658.766174
	C616.536621,660.645874 615.421143,662.979736 614.067810,665.106445
	C614.067810,665.106445 614.018738,665.018982 613.699097,664.899658
	C608.621338,668.164795 603.845886,671.525635 599.147034,674.990173
	C598.855164,675.205444 599.164062,676.235657 599.193420,676.886658
z"/>
<path fill="#2B2829" opacity="1.000000" stroke="none"
	d="
M517.011169,481.002136
	C521.421204,481.987793 525.831177,482.973450 530.969482,484.109100
	C541.787781,488.709259 551.427490,493.845490 558.977417,502.165466
	C567.320923,508.509674 569.861938,518.377380 574.000000,527.227844
	C575.483826,530.401428 576.023865,534.016235 576.532166,537.918701
	C575.769287,539.458801 575.296692,540.493652 575.196533,541.563354
	C574.543274,548.536316 573.905396,555.512512 573.443909,562.499695
	C573.376343,563.523193 574.273621,564.610413 574.724487,565.668213
	C573.227539,569.128906 571.766907,572.605835 570.224121,576.045959
	C568.386169,580.144531 567.044312,584.615723 564.481323,588.207581
	C559.228333,595.569153 552.361023,601.374695 543.886780,606.092468
	C540.789673,607.019714 537.377075,606.983826 535.957703,608.647949
	C531.872925,613.437195 525.739014,612.596985 520.968811,613.807800
	C513.442932,615.718079 505.024963,614.113708 496.984589,613.997070
	C495.700867,614.036133 494.417145,614.075256 492.553223,613.730103
	C490.444489,612.462341 489.004669,611.328064 487.368347,610.749451
	C484.288696,609.660400 481.095642,608.891907 477.949738,607.990173
	C467.615448,604.389343 460.525085,596.524963 454.376404,588.262695
	C447.807770,579.436096 445.206207,568.584412 443.006714,556.983887
	C442.709381,551.331787 442.330414,546.555847 441.951416,541.779968
	C443.292023,536.435059 444.632660,531.090149 446.030579,524.978333
	C447.392456,521.471802 448.697021,518.732239 450.001587,515.992676
	C450.235046,515.028809 450.468445,514.064941 451.130920,512.666992
	C452.039001,510.788147 452.517975,509.343292 452.996979,507.898468
	C452.996979,507.898468 452.993622,507.995117 453.284760,507.998657
	C454.425385,507.812439 455.769928,507.897461 456.050537,507.391876
	C460.699280,499.017090 468.682770,494.421570 476.290771,489.442902
	C479.396637,487.410400 482.782471,485.805847 486.040955,484.006592
	C491.070374,482.990570 496.099792,481.974548 502.020752,481.001678
	C507.611938,481.030579 512.311584,481.016357 517.011169,481.002136
M547.595154,569.109497
	C547.733398,568.405273 547.871643,567.700989 548.138550,566.540039
	C548.138550,566.540039 548.028442,566.078430 548.366516,565.732117
	C548.629761,565.534851 548.834839,565.289001 549.672852,564.698425
	C549.770630,563.470581 549.868408,562.242676 550.500061,560.591797
	C551.012512,559.092896 551.524902,557.593933 551.844666,556.020020
	C551.844666,556.020020 551.875000,555.815491 552.689453,555.748047
	C553.134583,551.159424 553.707825,546.576782 553.921204,541.977417
	C553.966187,541.008911 552.690491,539.979065 551.902039,538.192627
	C551.288452,537.165039 550.674866,536.137451 549.885254,534.355652
	C549.844727,533.695984 550.072083,532.784302 549.723816,532.414124
	C543.754761,526.069641 541.198669,517.165955 532.513672,512.598572
	C526.248413,509.303711 520.591980,505.303162 512.356628,504.719452
	C509.851166,504.803925 507.345673,504.888367 504.028870,505.086609
	C499.295776,506.073395 494.562653,507.060211 489.157043,508.218292
	C485.844299,511.434235 482.531555,514.650146 478.601044,518.219055
	C475.419098,523.898438 469.501678,528.012512 468.122894,534.959595
	C467.483490,536.637207 466.844086,538.314758 465.450653,540.302490
	C464.961121,543.924622 464.183075,547.542969 464.135864,551.170837
	C464.118958,552.470764 465.866272,553.793640 466.675964,555.668457
	C466.796021,556.175537 466.916107,556.682617 467.036774,557.933105
	C467.944672,559.940369 468.852570,561.947571 469.829102,564.782043
	C470.506836,571.126892 475.407074,574.789001 479.314392,578.871094
	C481.547089,581.203674 485.054993,582.315735 488.362976,584.567322
	C491.244232,586.377747 494.125519,588.188171 497.718689,590.142883
	C498.444794,590.139099 499.170868,590.135315 500.192078,590.809631
	C505.464600,594.371887 511.144196,592.661377 516.712219,591.979614
	C517.244568,591.914429 517.645752,590.777771 518.832886,590.111328
	C519.844421,589.763794 520.856018,589.416321 522.559387,588.866150
	C526.330750,586.918335 530.102051,584.970520 534.625671,583.144043
	C538.117065,579.504639 541.608459,575.865234 545.746277,571.973328
	C546.180969,570.991760 546.615662,570.010132 547.015747,568.991699
	C547.015747,568.991699 547.029785,569.039185 547.595154,569.109497
z"/>
</svg>
